<svg viewBox="0 0 160 160" xmlns="http://www.w3.org/2000/svg">
    <rect x="7" y="7" width="146" height="146" fill="#22222a" stroke="#E8932A" stroke-width="2" rx="10" ry="10"/>
    <path
        d="M 1 19 L 1 37 Q 1 41 5 41 L 9 41 Q 12 41 13 38 Q 20 19 38 13 Q 41 12 41 9 L 41 5 Q 41 1 37 1 L 19 1 Q 2 2 1 19"
        fill="#E8932A" />
    <path transform="translate(160 160) scale(-1 -1)"
        d="M 1 19 L 1 37 Q 1 41 5 41 L 9 41 Q 12 41 13 38 Q 20 19 38 13 Q 41 12 41 9 L 41 5 Q 41 1 37 1 L 19 1 Q 2 2 1 19"
        fill="#E8932A" />
    <path transform="translate(160 0) scale(-1 1)"
        d="M 1 19 L 1 37 Q 1 41 5 41 L 9 41 Q 12 41 13 38 Q 20 19 38 13 Q 41 12 41 9 L 41 5 Q 41 1 37 1 L 19 1 Q 2 2 1 19"
        fill="#E8932A" />
    <path transform="translate(0 160) scale(1 -1)"
        d="M 1 19 L 1 37 Q 1 41 5 41 L 9 41 Q 12 41 13 38 Q 20 19 38 13 Q 41 12 41 9 L 41 5 Q 41 1 37 1 L 19 1 Q 2 2 1 19"
        fill="#E8932A" />
    <path transform="translate(32 28.75)"
        d="M 21.35 43.012 L 0.24 74.19 c -0.616 1 0.02 2.3 1.186 2.428 l 41.652 4.414 l -21.728 -38.02 z M 1.482 63.086 L 16.54 38.616 L 1.212 29.42 c -0.534 -0.32 -1.212 0.064 -1.212 0.686 v 32.562 c 0 0.806 1.058 1.106 1.482 0.418 z M 3.65 84.72 l 38.88 17.532 c 1.06 0.49 2.27 -0.286 2.27 -1.452 v -13.134 l -40.71 -4.46 c -0.89 -0.1 -1.246 1.118 -0.44 1.514 z m 16.244 -51.556 L 35.88 4.576 c 0.868 -1.412 -0.718 -3.05 -2.156 -2.228 L 3.562 22.07 c -0.494 0.324 -0.478 1.052 0.026 1.356 l 16.306 9.738 z M 48 35.2 h 21.842 L 50.726 1.524 C 50.1 0.508 49.05 0 48 0 s -2.1 0.508 -2.726 1.524 L 26.158 35.2 H 48 z m 46.788 -5.78 l -15.328 9.198 l 15.058 24.47 c 0.422 0.688 1.482 0.388 1.482 -0.42 V 30.106 c 0 -0.622 -0.678 -1.006 -1.212 -0.686 z m -18.682 3.744 l 16.306 -9.74 c 0.506 -0.304 0.52 -1.032 0.026 -1.356 l -30.162 -19.72 c -1.438 -0.822 -3.024 0.816 -2.156 2.228 l 15.986 28.588 z m 15.804 50.042 L 51.2 87.664 v 13.134 c 0 1.168 1.21 1.942 2.27 1.452 l 38.88 -17.532 c 0.806 -0.394 0.45 -1.612 -0.44 -1.512 z m -17.26 -40.194 l -21.726 38.02 l 41.652 -4.414 c 1.166 -0.13 1.802 -1.428 1.186 -2.428 L 74.65 43.012 z M 48 41.6 H 27.914 L 48 76.75 L 68.086 41.6 H 48 z"
        fill="#ffffff" />
</svg>
